<svg xmlns="http://www.w3.org/2000/svg" version="1.1" xmlns:xlink="http://www.w3.org/1999/xlink" xmlns:svgjs="http://svgjs.dev/svgjs" width="100%" height="100%" viewBox="0 0 1000 600"><rect width="1000" height="600" x="0" y="0" fill="#ffffff"/><g><rect width="333.3333333333333" height="333.3333333333333" y="249.4004942986344" fill="#8aaae5" transform="matrix(0.5502286977580508,0,0,0.5502286977580509,0,71.06791547156756)" x="227.1782684326172"/><path d="M421.932989022227 486.8118381232499L421.932989022227 491.0671570931014Q406.6256610612337 491.0671570931014 397.9968198168128 486.27992325201853Q389.39752939857135 481.49268941093567 385.9696335617466 471.38630685753856Q382.57128855110136 461.27992430414145 382.57128855110136 445.3224781671986L382.57128855110136 445.3224781671986L382.57128855110136 363.40758799755884L329.3798014279587 481.49268941093567L325.1244824581072 481.49268941093567L269.8053358500388 361.2799285126331L269.8053358500388 481.49268941093567L261.29469791033597 481.49268941093567L261.29469791033597 341.06716340583887L281.5074630171302 341.06716340583887L332.5712906553472 451.70545662197577L382.57128855110136 341.06716340583887L401.72022391543277 341.06716340583887L401.72022391543277 445.3224781671986Q401.72022391543277 464.6782693147867 406.6256610612337 475.75982913210805Q411.50154738085513 486.8118381232499 421.932989022227 486.8118381232499L421.932989022227 486.8118381232499ZM462.5653750190721 481.49268941093567L443.41643965474077 481.49268941093567L443.41643965474077 407.0246074385359Q443.41643965474077 397.45013975637016 440.75686529858365 391.5990761728245Q438.09729094242647 385.7480125892788 428.5228232602608 385.7480125892788L428.5228232602608 385.7480125892788L424.2675042904094 385.7480125892788L424.2675042904094 381.49269361942737L443.41643965474077 381.49269361942737Q451.51336602793026 381.49269361942737 455.65048169306357 383.7385564090712Q459.81714818437644 385.95486837253543 461.50154527660925 390.0033315591302L461.50154527660925 390.0033315591302Q465.7568642464607 386.3981307652283 473.2036724437007 382.881582449865Q480.6504806409407 379.3650341345016 490.22494832310633 379.3650341345016L490.22494832310633 379.3650341345016Q499.3857044387587 379.3650341345016 507.5712832904868 382.55652336189024Q515.7568621422148 385.7480125892788 521.0760108545292 393.93359144100685Q526.3951595668434 402.1191702927349 526.3951595668434 417.6629048631644L526.3951595668434 417.6629048631644L526.3951595668434 481.49268941093567L507.24622420251205 481.49268941093567L507.24622420251205 417.6629048631644Q507.24622420251205 407.0246074385359 503.8478791918668 400.75983228847684Q500.44953418122157 394.4655063122383 495.13038546890726 391.71727947754255Q489.81123675659296 388.93950181666736 483.8419698683292 388.93950181666736L483.8419698683292 388.93950181666736Q477.4589914135521 388.93950181666736 472.05119022269923 392.33784682731255Q466.61383820566687 395.7361918379578 462.5653750190721 400.2279174172454L462.5653750190721 400.2279174172454L462.5653750190721 481.49268941093567Z " fill="#ffffff" transform="matrix(0.5502286977580508,0,0,0.5502286977580509,0,71.06791547156756)"/><path d="M706.4348568776943 487.4100841203094L663.2693900415466 487.4100841203094L663.2693900415466 370.8633236627104Q663.2693900415466 361.15109362457713 660.5715483642873 355.21584193460683Q657.8737066870281 349.2805902446365 648.1614766488947 349.2805902446365L648.1614766488947 349.2805902446365L643.84492996528 349.2805902446365L643.84492996528 344.9640435610217L699.9600368522721 344.9640435610217Q708.3832980890481 344.9640435610217 718.4252643321797 346.2530123623789Q728.4672305753113 347.5419811637361 737.5199882034478 351.31895951189904Q746.5727458315845 355.09593786006195 752.4180694656461 362.64989455638784Q758.2334170810716 370.20385125271366 758.2334170810716 382.733827042651L758.2334170810716 382.733827042651Q758.2334170810716 392.44605708078427 751.5487649251959 400.7494142430155Q744.8641127693203 409.0527714052467 730.1758636375755 414.02879049885814L730.1758636375755 414.02879049885814Q744.2046403593235 416.18706384066553 751.9684291861029 421.04317885973217Q759.7621940315184 425.8992938787988 762.7597958951399 432.79377816512795Q765.7873737773974 439.71823847009335 765.7873737773974 448.5611639677764L765.7873737773974 448.5611639677764Q765.7873737773974 460.64149947817054 760.391690422879 468.31536024904125Q754.9960070683605 475.95924500127575 746.2729856452223 480.06595955443703Q737.5199882034478 484.1726741075983 727.0583576994093 485.79137911395384Q716.5967271953707 487.4100841203094 706.4348568776943 487.4100841203094L706.4348568776943 487.4100841203094ZM703.1974468649832 479.8561274239835L703.1974468649832 479.8561274239835Q722.8317390717032 479.8561274239835 733.5331777248315 472.09233859720416Q744.2046403593235 464.32854977042484 744.2046403593235 449.64030063868006L744.2046403593235 449.64030063868006Q744.2046403593235 434.95205150693533 733.8629139298298 427.188262680156Q723.4912114816998 419.42447385337664 703.1974468649832 419.42447385337664L703.1974468649832 419.42447385337664L682.693850117813 419.42447385337664L682.693850117813 476.8285495417259Q687.6698692114244 478.35732649217283 692.9456484913981 479.1067269580782Q698.2514037900079 479.8561274239835 703.1974468649832 479.8561274239835ZM682.693850117813 354.67627359915497L682.693850117813 410.7913804861471L703.1974468649832 410.7913804861471Q711.8305402322128 410.7913804861471 719.7142331335369 407.553970473436Q727.5979260348611 404.31656046072493 732.6638731843813 397.84174043530277Q737.7298203339014 391.3669204098806 737.7298203339014 381.65469037174734L737.7298203339014 381.65469037174734Q737.7298203339014 371.2829879236174 731.5847365134775 364.8081678981952Q725.4396526930537 358.33334787277306 716.4768231208259 355.4256740650603Q707.5139935485979 352.5180002573476 698.8809001813684 352.5180002573476L698.8809001813684 352.5180002573476Q694.7741856282071 352.5180002573476 690.3677108886836 353.1774726673443Q685.931260130524 353.8069690587048 682.693850117813 354.67627359915497L682.693850117813 354.67627359915497ZM831.8245428329762 489.56835746211675L831.8245428329762 489.56835746211675Q816.7166294403246 489.56835746211675 806.1650708803774 482.4340650266979Q795.5835363017939 475.3297486099152 789.978020816822 463.2494130995211Q784.3425293132137 451.13910157049077 784.3425293132137 436.69066058783574L784.3425293132137 436.69066058783574Q784.3425293132137 422.002411456091 789.978020816822 410.04198002024174Q795.5835363017939 398.05157256575626 806.1650708803774 390.94725614897357Q816.7166294403246 383.8129637135547 831.8245428329762 383.8129637135547L831.8245428329762 383.8129637135547Q846.932456225628 383.8129637135547 857.5139908042115 390.94725614897357Q868.0955253827949 398.05157256575626 873.7010408677669 410.04198002024174Q879.3065563527389 422.002411456091 879.3065563527389 436.69066058783574L879.3065563527389 436.69066058783574Q879.3065563527389 451.13910157049077 873.7010408677669 463.2494130995211Q868.0955253827949 475.3297486099152 857.5139908042115 482.4340650266979Q846.932456225628 489.56835746211675 831.8245428329762 489.56835746211675ZM831.8245428329762 480.9352640948872L831.8245428329762 480.9352640948872Q840.0379719392988 480.9352640948872 846.093127703814 475.0000124049169Q852.118307449693 469.0647607149466 855.4756215369489 459.022794471815Q858.8029596055686 448.9808282286834 858.8029596055686 436.69066058783574L858.8029596055686 436.69066058783574Q858.8029596055686 424.1606847978984 855.4756215369489 414.23862262931164Q852.118307449693 404.31656046072493 846.093127703814 398.3813087707546Q840.0379719392988 392.44605708078427 831.8245428329762 392.44605708078427L831.8245428329762 392.44605708078427Q823.8509218757434 392.44605708078427 817.7058380553196 398.3813087707546Q811.5607542348959 404.31656046072493 808.2034401476399 414.23862262931164Q804.846126060384 424.1606847978984 804.846126060384 436.69066058783574L804.846126060384 436.69066058783574Q804.846126060384 448.9808282286834 808.2034401476399 459.022794471815Q811.5607542348959 469.0647607149466 817.7058380553196 475.0000124049169Q823.8509218757434 480.9352640948872 831.8245428329762 480.9352640948872ZM946.2130299487679 489.56835746211675L946.2130299487679 489.56835746211675Q931.1051165561162 489.56835746211675 920.5535579961689 482.4340650266979Q909.9720234175855 475.3297486099152 904.3665079326136 463.2494130995211Q898.7310164290054 451.13910157049077 898.7310164290054 436.69066058783574L898.7310164290054 436.69066058783574Q898.7310164290054 422.002411456091 904.3665079326136 410.04198002024174Q909.9720234175855 398.05157256575626 920.5535579961689 390.94725614897357Q931.1051165561162 383.8129637135547 946.2130299487679 383.8129637135547L946.2130299487679 383.8129637135547Q961.3209433414197 383.8129637135547 971.9024779200031 390.94725614897357Q982.4840124985865 398.05157256575626 988.0895279835585 410.04198002024174Q993.6950434685305 422.002411456091 993.6950434685305 436.69066058783574L993.6950434685305 436.69066058783574Q993.6950434685305 451.13910157049077 988.0895279835585 463.2494130995211Q982.4840124985865 475.3297486099152 971.9024779200031 482.4340650266979Q961.3209433414197 489.56835746211675 946.2130299487679 489.56835746211675ZM946.2130299487679 480.9352640948872L946.2130299487679 480.9352640948872Q954.4264590550905 480.9352640948872 960.4816148196057 475.0000124049169Q966.5067945654846 469.0647607149466 969.8641086527405 459.022794471815Q973.1914467213603 448.9808282286834 973.1914467213603 436.69066058783574L973.1914467213603 436.69066058783574Q973.1914467213603 424.1606847978984 969.8641086527405 414.23862262931164Q966.5067945654846 404.31656046072493 960.4816148196057 398.3813087707546Q954.4264590550905 392.44605708078427 946.2130299487679 392.44605708078427L946.2130299487679 392.44605708078427Q938.2394089915351 392.44605708078427 932.0943251711112 398.3813087707546Q925.9492413506874 404.31656046072493 922.5919272634314 414.23862262931164Q919.2346131761756 424.1606847978984 919.2346131761756 436.69066058783574L919.2346131761756 436.69066058783574Q919.2346131761756 448.9808282286834 922.5919272634314 459.022794471815Q925.9492413506874 469.0647607149466 932.0943251711112 475.0000124049169Q938.2394089915351 480.9352640948872 946.2130299487679 480.9352640948872ZM1095.5835308130208 489.56835746211675L1095.5835308130208 489.56835746211675Q1087.3701017066983 489.56835746211675 1079.4864088053741 485.79137911395384Q1071.6326919226863 482.0144007657909 1064.288567356814 472.30217072765765L1064.288567356814 472.30217072765765L1038.389287255125 437.76979725873946L1038.389287255125 487.4100841203094L1018.9648271788587 487.4100841203094L1018.9648271788587 370.8633236627104Q1018.9648271788587 361.15109362457713 1016.2669855015995 355.21584193460683Q1013.5691438243401 349.2805902446365 1003.8569137862069 349.2805902446365L1003.8569137862069 349.2805902446365L999.5403671025922 349.2805902446365L999.5403671025922 344.9640435610217L1018.9648271788587 344.9640435610217Q1026.5187838751845 344.9640435610217 1030.7154264842545 346.9124847723756Q1034.9420451119606 348.86092598372954 1036.6506781742248 354.4664414687015Q1038.389287255125 360.07195695367346 1038.389287255125 370.8633236627104L1038.389287255125 370.8633236627104L1038.389287255125 434.53238724602835L1065.3677040277175 400.00001377711015Q1070.3137471026926 393.7350258821415 1076.5787349976613 389.8681194780699Q1082.84372289263 385.9712370553621 1093.4252574712136 385.9712370553621L1093.4252574712136 385.9712370553621L1099.9000774966357 385.9712370553621L1099.9000774966357 391.3669204098806Q1094.2945620116639 391.3669204098806 1088.8988786571454 393.7350258821415Q1083.5031953026269 396.10313135440236 1079.3964807494656 401.0791504480138L1079.3964807494656 401.0791504480138L1055.6554739895842 431.2949772333173L1082.6338907621766 465.8273507022355Q1088.8988786571454 474.04077980855806 1094.3844900675724 478.11751834308313Q1099.9000774966357 482.2242328962444 1106.3748975220578 483.30336956714814L1106.3748975220578 483.30336956714814L1106.3748975220578 487.4100841203094Q1104.6362884411576 488.2793886607596 1101.7286146334447 488.90888505212007Q1098.8209408257321 489.56835746211675 1095.5835308130208 489.56835746211675ZM1168.9648244344721 491.06715839392746L1168.9648244344721 491.06715839392746Q1160.3317310672426 491.06715839392746 1151.5787336254682 489.23862125711844Q1142.8557122023299 487.4100841203094 1135.6015156923663 483.9628419771448Q1128.3772952010388 480.5155998339802 1124.0607485174241 475.65948481491364Q1119.7442018338093 470.80336979584695 1119.7442018338093 464.7482140313318L1119.7442018338093 464.7482140313318L1119.7442018338093 441.66667968144725L1123.641084256517 441.66667968144725Q1127.298158530135 463.4592452299746 1137.9995971832634 472.9616431376544Q1148.6710598177556 482.4340650266979 1167.0163832231183 482.4340650266979L1167.0163832231183 482.4340650266979Q1174.3605077889906 482.4340650266979 1180.8353278144127 479.9760314985284Q1187.3101478398348 477.48802195172266 1191.2969583184513 472.51200285811115Q1195.2837687970678 467.5659597831359 1195.2837687970678 460.43166734771705L1195.2837687970678 460.43166734771705Q1195.2837687970678 450.9292694400373 1189.3485171070975 444.2446172841616Q1183.4132654171271 437.55996512828597 1171.5427620371865 430.63550482332056L1171.5427620371865 430.63550482332056L1145.0139855441375 414.8980950393084Q1131.1950409528429 406.6846659329858 1125.469621393326 398.26140469620975Q1119.7442018338093 389.8681194780699 1119.7442018338093 377.75780794903955L1119.7442018338093 377.75780794903955Q1119.7442018338093 361.15109362457713 1131.2849690087514 351.10912738144555Q1142.8557122023299 341.06716113831396 1161.6206998685998 341.06716113831396L1161.6206998685998 341.06716113831396Q1169.5943208258327 341.06716113831396 1177.8077499321553 342.8057702192143Q1186.0211790384778 344.54437930011477 1192.915663324807 347.8717173687345Q1199.810147611136 351.22903145599037 1204.0367662388421 355.9652424005121Q1208.2334088479122 360.73142936367014 1208.2334088479122 366.9664412400026L1208.2334088479122 366.9664412400026L1208.2334088479122 390.0779516085234L1204.3665024438405 390.0779516085234Q1200.6794521515862 368.285386059996 1190.3377257220927 358.99282028276974Q1179.9660232739625 349.7002545055435 1161.6206998685998 349.7002545055435L1161.6206998685998 349.7002545055435Q1155.355711973631 349.7002545055435 1149.5403643582056 352.39809618280276Q1143.6950407241438 355.09593786006195 1140.1578705250708 359.9520528791286Q1136.5907243073614 364.8081678981952 1136.5907243073614 371.52279607270714L1136.5907243073614 371.52279607270714Q1136.5907243073614 380.78538583129716 1142.6159040532402 386.84054159581234Q1148.6710598177556 392.86572134169126 1160.5415631976962 399.79018164665666L1160.5415631976962 399.79018164665666L1187.1003157093814 415.52759143066885Q1200.8892842820396 423.7410205369914 1207.364104307462 431.4148813078621Q1213.8389243328843 439.0587660600967 1213.8389243328843 451.13910157049077L1213.8389243328843 451.13910157049077Q1213.8389243328843 469.2745928454001 1201.75858882249 480.1858636289819Q1189.6782533120959 491.06715839392746 1168.9648244344721 491.06715839392746ZM1268.665062418519 489.56835746211675L1268.665062418519 489.56835746211675Q1257.2441993181217 489.56835746211675 1249.990002808158 482.88370530624115Q1242.7657823168302 476.19905315036544 1242.7657823168302 461.5108040186207L1242.7657823168302 461.5108040186207L1242.7657823168302 394.60433042259166L1227.6578689241787 394.60433042259166L1227.6578689241787 385.9712370553621L1242.7657823168302 385.9712370553621L1242.7657823168302 366.5467769790956L1253.5571490258674 353.5971369282513L1262.190242393097 353.5971369282513L1262.190242393097 385.9712370553621L1288.0895224947856 385.9712370553621L1288.0895224947856 394.60433042259166L1262.190242393097 394.60433042259166L1262.190242393097 461.5108040186207Q1262.190242393097 471.22303405675393 1265.9672207412598 476.0791490758206Q1269.7441990894226 480.9352640948872 1277.2981557857486 480.9352640948872L1277.2981557857486 480.9352640948872Q1282.9036712707205 480.9352640948872 1286.5907215629747 479.64629529353Q1290.2477958365928 478.35732649217283 1293.485205849304 476.6187174112724L1293.485205849304 476.6187174112724L1295.6434791911113 480.9352640948872Q1292.1962370479466 483.51320169760163 1286.1410812834317 486.5407795798592Q1280.1159015375526 489.56835746211675 1268.665062418519 489.56835746211675ZM1353.2873630285505 489.56835746211675L1353.2873630285505 489.56835746211675Q1338.1794496358987 489.56835746211675 1327.5979150573153 482.4340650266979Q1317.016380478732 475.3297486099152 1311.4108649937598 463.2494130995211Q1305.805349508788 451.13910157049077 1305.805349508788 436.69066058783574L1305.805349508788 436.69066058783574Q1305.805349508788 422.002411456091 1311.4108649937598 410.04198002024174Q1317.016380478732 398.05157256575626 1327.5979150573153 390.94725614897357Q1338.1794496358987 383.8129637135547 1353.2873630285505 383.8129637135547L1353.2873630285505 383.8129637135547Q1368.3952764212022 383.8129637135547 1378.9468349811493 390.94725614897357Q1389.528369559733 398.05157256575626 1395.1338850447048 410.04198002024174Q1400.769376548313 422.002411456091 1400.769376548313 436.69066058783574L1400.769376548313 436.69066058783574Q1400.769376548313 451.13910157049077 1395.1338850447048 463.2494130995211Q1389.528369559733 475.3297486099152 1378.9468349811493 482.4340650266979Q1368.3952764212022 489.56835746211675 1353.2873630285505 489.56835746211675ZM1353.2873630285505 480.9352640948872L1353.2873630285505 480.9352640948872Q1361.4708161162368 480.9352640948872 1367.5259718807517 475.0000124049169Q1373.5511516266308 469.0647607149466 1376.9084657138867 459.022794471815Q1380.2657798011428 448.9808282286834 1380.2657798011428 436.69066058783574L1380.2657798011428 436.69066058783574Q1380.2657798011428 424.1606847978984 1376.9084657138867 414.23862262931164Q1373.5511516266308 404.31656046072493 1367.5259718807517 398.3813087707546Q1361.4708161162368 392.44605708078427 1353.2873630285505 392.44605708078427L1353.2873630285505 392.44605708078427Q1345.2837660526814 392.44605708078427 1339.1386822322575 398.3813087707546Q1332.9935984118338 404.31656046072493 1329.6362843245777 414.23862262931164Q1326.308946255958 424.1606847978984 1326.308946255958 436.69066058783574L1326.308946255958 436.69066058783574Q1326.308946255958 448.9808282286834 1329.6362843245777 459.022794471815Q1332.9935984118338 469.0647607149466 1339.1386822322575 475.0000124049169Q1345.2837660526814 480.9352640948872 1353.2873630285505 480.9352640948872ZM1447.1722533971717 487.4100841203094L1427.7477933209054 487.4100841203094L1427.7477933209054 411.8705171570508Q1427.7477933209054 402.15828711891754 1425.049951643646 396.2230354289472Q1422.352109966387 390.2877837389769 1412.6398799282535 390.2877837389769L1412.6398799282535 390.2877837389769L1410.4816065864463 390.2877837389769L1410.4816065864463 385.9712370553621L1427.7477933209054 385.9712370553621Q1435.9312464085917 385.9712370553621 1440.1578650362978 388.339342527623Q1444.3545076453677 390.70744799988387 1446.0931167262681 395.6834670934954L1446.0931167262681 395.6834670934954Q1449.7501909998862 392.0263928198773 1456.76457936076 387.919678266716Q1463.7789677216344 383.8129637135547 1473.0715334988604 383.8129637135547L1473.0715334988604 383.8129637135547Q1476.3089435115714 383.8129637135547 1479.9660177851895 384.5623641794601Q1483.623092058808 385.31176464536543 1486.0211735497048 387.05037372626583L1486.0211735497048 387.05037372626583Q1488.3892790219659 388.7889828071662 1490.0979120842296 391.15708827942706Q1491.8365211651303 393.525193751688 1493.5751302460308 396.76260376439905L1493.5751302460308 396.76260376439905L1484.9420368788012 403.2374237898212Q1482.543955387904 400.00001377711015 1477.927648517927 398.3813087707546Q1473.281365629314 396.76260376439905 1467.6758501443421 396.76260376439905L1467.6758501443421 396.76260376439905Q1461.20103011892 396.76260376439905 1455.8053467644013 399.6702775721118Q1450.409663409883 402.5779513798245 1447.1722533971717 407.553970473436L1447.1722533971717 407.553970473436Q1447.1722533971717 408.6331071443397 1447.1722533971717 410.6714764116022Q1447.1722533971717 412.739821697501 1447.1722533971717 414.02879049885814L1447.1722533971717 414.02879049885814L1447.1722533971717 487.4100841203094ZM1549.2405968534797 489.56835746211675L1549.2405968534797 489.56835746211675Q1534.1326834608278 489.56835746211675 1524.0907172176965 482.4340650266979Q1514.078726993201 475.3297486099152 1508.9828038250446 463.2494130995211Q1503.9168566755243 451.13910157049077 1503.9168566755243 436.69066058783574L1503.9168566755243 436.69066058783574Q1503.9168566755243 422.002411456091 1509.1027078995894 410.04198002024174Q1514.2885591236543 398.05157256575626 1524.0007891617877 390.94725614897357Q1533.713019199921 383.8129637135547 1547.0823235116723 383.8129637135547L1547.0823235116723 383.8129637135547Q1561.770572643417 383.8129637135547 1571.3628986070053 389.32855114261804Q1580.9852005892299 394.81416255304515 1585.601507459207 405.3956971316286Q1590.24779034782 415.9772317102121 1590.24779034782 431.2949772333173L1590.24779034782 431.2949772333173L1589.8281260869132 439.9280706005468L1524.4204534226947 439.9280706005468Q1524.4204534226947 457.6139215959129 1532.0943141935652 469.2745928454001Q1539.7381989457997 480.9352640948872 1553.5571435370944 480.9352640948872L1553.5571435370944 480.9352640948872Q1564.1386781156777 480.9352640948872 1571.1530664765517 476.40888528081894Q1578.1674548374256 471.88250646675067 1583.772970322398 463.6690773604281L1583.772970322398 463.6690773604281L1588.0895170060123 466.90648737313916Q1583.3533060614907 475.1199164794617 1577.4180543715204 480.06595955443703Q1571.48280268155 485.0419786480485 1564.4684143206762 487.29018004576454Q1557.4540259598023 489.56835746211675 1549.2405968534797 489.56835746211675ZM1524.4204534226947 431.2949772333173L1524.4204534226947 431.2949772333173L1569.7441936006496 431.2949772333173Q1569.7441936006496 412.5299895670475 1564.1386781156777 402.4880233239159Q1558.5331626307059 392.44605708078427 1547.0823235116723 392.44605708078427L1547.0823235116723 392.44605708078427Q1540.60750348625 392.44605708078427 1535.5415563367299 397.5120042303044Q1530.4756091872098 402.5779513798245 1527.4480313049523 411.33094882159895Q1524.4204534226947 420.0839462633733 1524.4204534226947 431.2949772333173Z " fill="#8aaae5" transform="matrix(0.5502286977580508,0,0,0.5502286977580509,0,71.06791547156756)"/></g></svg>